<svg width="47" height="45" viewBox="0 0 47 45" fill="none" xmlns="http://www.w3.org/2000/svg">
<path fill-rule="evenodd" clip-rule="evenodd" d="M18.907 8.80262C24.7492 8.77654 29.5039 12.9307 29.5269 18.0812C29.5499 23.2317 24.8325 27.4282 18.9902 27.4543C17.7205 27.4599 16.5053 27.2687 15.3798 26.9143C14.8836 26.758 14.3325 26.725 13.7957 26.8438C12.3538 27.1628 10.8812 27.3676 9.39563 27.4553C9.94862 26.1548 10.1354 24.7508 9.93278 23.3657C9.88771 23.0575 9.77212 22.7877 9.63524 22.5645C8.83511 21.2601 8.37741 19.7673 8.3703 18.1757C8.34731 13.0252 13.0647 8.82871 18.907 8.80262ZM32.5493 18.0677C32.5197 11.4456 26.4065 6.10456 18.8951 6.1381C11.3836 6.17164 5.31836 11.5671 5.34793 18.1892C5.35695 20.2098 5.93364 22.1148 6.9455 23.7835C7.10778 25.0163 6.82286 26.2671 6.12532 27.3539L6.06376 27.4498C5.28168 28.6683 6.28352 30.1756 7.8708 30.1685C10.089 30.1586 12.2934 29.9157 14.4382 29.448C15.8678 29.8895 17.4049 30.1259 19.0021 30.1188C26.5136 30.0853 32.5788 24.6898 32.5493 18.0677ZM36.104 17.0635C35.4682 17.5407 35.391 18.3816 35.9317 18.9416C37.604 20.6737 38.6158 22.9138 38.6267 25.3682C38.6344 27.0769 38.1562 28.6839 37.3081 30.0914C37.1721 30.317 37.0596 30.5876 37.017 30.8943C36.8077 32.4016 37.0356 33.9266 37.6725 35.3276C36.0306 35.2535 34.4017 35.0451 32.8067 34.706C32.2683 34.5915 31.7161 34.6292 31.2197 34.7913C30.0117 35.1859 28.7049 35.4046 27.3375 35.4107C24.5535 35.4232 22.0035 34.5513 20.0238 33.0927C19.3837 32.6212 18.4307 32.6967 17.895 33.2616C17.3594 33.8264 17.4441 34.6665 18.0841 35.1381C20.5904 36.9846 23.8259 38.091 27.3493 38.0752C29.0453 38.0677 30.6746 37.8006 32.1868 37.3157C34.4713 37.7947 36.8176 38.033 39.1764 38.0224C40.7903 38.0152 41.7953 36.4736 40.989 35.2418L40.989 35.2418L40.9227 35.1405C40.1583 33.9725 39.84 32.6225 40.0073 31.2886C41.0647 29.5144 41.6586 27.4933 41.6491 25.3547C41.6352 22.2484 40.3512 19.406 38.2342 17.2133C37.6936 16.6532 36.7398 16.5862 36.104 17.0635ZM12.9098 19.4877C13.7444 19.484 14.4183 18.8845 14.415 18.1487C14.4118 17.4129 13.7325 16.8194 12.8979 16.8232C12.0633 16.8269 11.3894 17.4264 11.3927 18.1622C11.396 18.898 12.0752 19.4914 12.9098 19.4877ZM20.4598 18.1217C20.4631 18.8575 19.7892 19.457 18.9545 19.4607C18.1199 19.4644 17.4407 18.871 17.4374 18.1352C17.4341 17.3994 18.108 16.7999 18.9427 16.7962C19.7773 16.7925 20.4565 17.3859 20.4598 18.1217ZM24.9993 19.4337C25.8339 19.43 26.5078 18.8305 26.5045 18.0947C26.5012 17.3589 25.822 16.7655 24.9874 16.7692C24.1528 16.7729 23.4789 17.3724 23.4822 18.1082C23.4854 18.844 24.1647 19.4374 24.9993 19.4337Z" fill="#188151"/>
</svg>
