<svg width="28" height="26" viewBox="0 0 28 26" fill="none" xmlns="http://www.w3.org/2000/svg">
<path d="M26.865 23.5C24.9613 20.2087 22.0275 17.8487 18.6038 16.73C20.2973 15.7218 21.6131 14.1856 22.349 12.3572C23.085 10.5289 23.2004 8.5095 22.6776 6.60919C22.1548 4.70889 21.0226 3.03274 19.455 1.83815C17.8873 0.643568 15.9709 -0.00340271 14 -0.00340271C12.0291 -0.00340271 10.1127 0.643568 8.54503 1.83815C6.9774 3.03274 5.84525 4.70889 5.32243 6.60919C4.79961 8.5095 4.91504 10.5289 5.65099 12.3572C6.38694 14.1856 7.70271 15.7218 9.39625 16.73C5.9725 17.8475 3.03875 20.2075 1.135 23.5C1.06519 23.6138 1.01888 23.7405 0.998814 23.8725C0.978746 24.0045 0.985323 24.1392 1.01816 24.2687C1.05099 24.3981 1.10942 24.5197 1.18999 24.6262C1.27056 24.7327 1.37165 24.8219 1.48728 24.8887C1.60292 24.9555 1.73076 24.9985 1.86326 25.0151C1.99577 25.0316 2.13025 25.0215 2.25878 24.9853C2.38731 24.9491 2.50728 24.8874 2.61161 24.8041C2.71595 24.7208 2.80253 24.6174 2.86625 24.5C5.22125 20.43 9.38375 18 14 18C18.6163 18 22.7788 20.43 25.1338 24.5C25.1975 24.6174 25.2841 24.7208 25.3884 24.8041C25.4927 24.8874 25.6127 24.9491 25.7412 24.9853C25.8698 25.0215 26.0042 25.0316 26.1367 25.0151C26.2692 24.9985 26.3971 24.9555 26.5127 24.8887C26.6284 24.8219 26.7294 24.7327 26.81 24.6262C26.8906 24.5197 26.949 24.3981 26.9818 24.2687C27.0147 24.1392 27.0213 24.0045 27.0012 23.8725C26.9811 23.7405 26.9348 23.6138 26.865 23.5ZM7 9C7 7.61553 7.41055 6.26215 8.17972 5.11101C8.94889 3.95986 10.0421 3.06265 11.3212 2.53284C12.6003 2.00303 14.0078 1.8644 15.3656 2.1345C16.7235 2.4046 17.9708 3.07128 18.9497 4.05025C19.9287 5.02922 20.5954 6.2765 20.8655 7.63437C21.1356 8.99223 20.997 10.3997 20.4672 11.6788C19.9373 12.9579 19.0401 14.0511 17.889 14.8203C16.7379 15.5895 15.3845 16 14 16C12.1441 15.998 10.3648 15.2599 9.05245 13.9476C7.74012 12.6352 7.00199 10.8559 7 9Z" fill="#188151"/>
</svg>
